<svg xmlns="http://www.w3.org/2000/svg" xmlns:xlink="http://www.w3.org/1999/xlink" width="500" zoomAndPan="magnify" viewBox="0 0 375 374.999991" height="500" preserveAspectRatio="xMidYMid meet" version="1.0"><defs><filter x="0%" y="0%" width="100%" height="100%" id="5d3de00c1b"><feColorMatrix values="0 0 0 0 1 0 0 0 0 1 0 0 0 0 1 0 0 0 1 0" color-interpolation-filters="sRGB"/></filter><mask id="bb8660ba3f"><g filter="url(#5d3de00c1b)"><rect x="-37.5" width="450" fill="#000000" y="-37.499999" height="449.999989" fill-opacity="0.8"/></g></mask><clipPath id="215c7d1670"><path d="M 0.863281 0.414062 L 151.320312 0.414062 L 151.320312 221.886719 L 0.863281 221.886719 Z M 0.863281 0.414062 " clip-rule="nonzero"/></clipPath><clipPath id="65e5085a07"><path d="M 38.363281 0.414062 L 113.820312 0.414062 C 123.765625 0.414062 133.304688 4.363281 140.335938 11.398438 C 147.367188 18.429688 151.320312 27.96875 151.320312 37.914062 L 151.320312 184.386719 C 151.320312 194.332031 147.367188 203.871094 140.335938 210.902344 C 133.304688 217.933594 123.765625 221.886719 113.820312 221.886719 L 38.363281 221.886719 C 28.417969 221.886719 18.878906 217.933594 11.847656 210.902344 C 4.8125 203.871094 0.863281 194.332031 0.863281 184.386719 L 0.863281 37.914062 C 0.863281 27.96875 4.8125 18.429688 11.847656 11.398438 C 18.878906 4.363281 28.417969 0.414062 38.363281 0.414062 " clip-rule="nonzero"/></clipPath><clipPath id="e6e2e0a605"><rect x="0" width="152" y="0" height="223"/></clipPath><mask id="b2285d25f8"><g filter="url(#5d3de00c1b)"><rect x="-37.5" width="450" fill="#000000" y="-37.499999" height="449.999989" fill-opacity="0.8"/></g></mask><clipPath id="77fcd7e48b"><path d="M 0.503906 0.101562 L 150.960938 0.101562 L 150.960938 221.574219 L 0.503906 221.574219 Z M 0.503906 0.101562 " clip-rule="nonzero"/></clipPath><clipPath id="8a99d59a5c"><path d="M 38.003906 0.101562 L 113.460938 0.101562 C 123.40625 0.101562 132.945312 4.054688 139.976562 11.085938 C 147.011719 18.117188 150.960938 27.65625 150.960938 37.601562 L 150.960938 184.074219 C 150.960938 194.019531 147.011719 203.558594 139.976562 210.589844 C 132.945312 217.625 123.40625 221.574219 113.460938 221.574219 L 38.003906 221.574219 C 28.058594 221.574219 18.519531 217.625 11.488281 210.589844 C 4.457031 203.558594 0.503906 194.019531 0.503906 184.074219 L 0.503906 37.601562 C 0.503906 27.65625 4.457031 18.117188 11.488281 11.085938 C 18.519531 4.054688 28.058594 0.101562 38.003906 0.101562 " clip-rule="nonzero"/></clipPath><clipPath id="649b6aa0a1"><rect x="0" width="152" y="0" height="222"/></clipPath><mask id="4a4ceb9482"><g filter="url(#5d3de00c1b)"><rect x="-37.5" width="450" fill="#000000" y="-37.499999" height="449.999989" fill-opacity="0.8"/></g></mask><clipPath id="33f1648406"><path d="M 0.679688 0.113281 L 151.136719 0.113281 L 151.136719 221.585938 L 0.679688 221.585938 Z M 0.679688 0.113281 " clip-rule="nonzero"/></clipPath><clipPath id="44e0e2637c"><path d="M 38.179688 0.113281 L 113.636719 0.113281 C 123.582031 0.113281 133.121094 4.066406 140.152344 11.097656 C 147.1875 18.128906 151.136719 27.667969 151.136719 37.613281 L 151.136719 184.085938 C 151.136719 194.03125 147.1875 203.570312 140.152344 210.601562 C 133.121094 217.636719 123.582031 221.585938 113.636719 221.585938 L 38.179688 221.585938 C 28.234375 221.585938 18.695312 217.636719 11.664062 210.601562 C 4.632812 203.570312 0.679688 194.03125 0.679688 184.085938 L 0.679688 37.613281 C 0.679688 27.667969 4.632812 18.128906 11.664062 11.097656 C 18.695312 4.066406 28.234375 0.113281 38.179688 0.113281 " clip-rule="nonzero"/></clipPath><clipPath id="b20feb4f90"><rect x="0" width="152" y="0" height="222"/></clipPath></defs><g mask="url(#bb8660ba3f)"><g transform="matrix(1, 0, 0, 1, 134, 107)"><g clip-path="url(#e6e2e0a605)"><g clip-path="url(#215c7d1670)"><g clip-path="url(#65e5085a07)"><path fill="#034397" d="M 0.863281 0.414062 L 151.320312 0.414062 L 151.320312 221.886719 L 0.863281 221.886719 Z M 0.863281 0.414062 " fill-opacity="1" fill-rule="nonzero"/></g></g></g></g></g><g mask="url(#b2285d25f8)"><g transform="matrix(1, 0, 0, 1, 115, 77)"><g clip-path="url(#649b6aa0a1)"><g clip-path="url(#77fcd7e48b)"><g clip-path="url(#8a99d59a5c)"><path fill="#0029ff" d="M 0.503906 0.101562 L 150.960938 0.101562 L 150.960938 221.574219 L 0.503906 221.574219 Z M 0.503906 0.101562 " fill-opacity="1" fill-rule="nonzero"/></g></g></g></g></g><g mask="url(#4a4ceb9482)"><g transform="matrix(1, 0, 0, 1, 89, 46)"><g clip-path="url(#b20feb4f90)"><g clip-path="url(#33f1648406)"><g clip-path="url(#44e0e2637c)"><path fill="#00e7ff" d="M 0.679688 0.113281 L 151.136719 0.113281 L 151.136719 221.585938 L 0.679688 221.585938 Z M 0.679688 0.113281 " fill-opacity="1" fill-rule="nonzero"/></g></g></g></g></g></svg>